<?xml version="1.0" standalone="no"?>
<!DOCTYPE svg PUBLIC "-//W3C//DTD SVG 20010904//EN"
 "http://www.w3.org/TR/2001/REC-SVG-20010904/DTD/svg10.dtd">
<svg version="1.0" xmlns="http://www.w3.org/2000/svg"
 width="224.000000pt" height="224.000000pt" viewBox="0 0 224.000000 224.000000"
 preserveAspectRatio="xMidYMid meet">

<g transform="translate(0.000000,224.000000) scale(0.100000,-0.100000)"
fill="#000000" stroke="none">
<path d="M670 1520 c-91 -10 -234 -57 -356 -115 -70 -34 -111 -63 -173 -121
-71 -66 -83 -83 -98 -133 -36 -123 -6 -250 77 -324 40 -37 161 -91 237 -107
198 -41 346 -28 573 50 259 88 359 101 752 98 282 -2 295 -1 349 20 159 63
230 217 170 372 -42 111 -120 169 -256 191 -38 6 -153 10 -255 9 -347 -3 -395
-2 -490 15 -280 48 -406 59 -530 45z m287 -94 c0 0 3 -14 5 -31 3 -28 1 -30
-34 -33 l-38 -3 0 -62 c0 -34 -3 -79 -6 -99 -6 -36 -5 -38 20 -38 22 0 26 -4
26 -30 0 -23 -4 -30 -20 -30 -16 0 -20 -7 -20 -31 l0 -32 46 7 45 6 -3 -43 -3
-42 -99 -8 c-54 -4 -100 -7 -102 -5 -2 3 -7 460 -5 479 1 5 181 0 188 -5z
m701 4 l62 0 0 -35 c0 -33 -2 -35 -34 -35 -19 0 -36 -6 -39 -13 -3 -8 -5 -53
-6 -100 -1 -86 -1 -87 24 -87 21 0 25 -5 25 -31 0 -26 -3 -31 -20 -26 -20 5
-21 4 -23 -35 -1 -21 3 -23 43 -23 44 0 45 -1 48 -34 2 -18 0 -37 -5 -41 -11
-11 -203 -23 -204 -13 0 4 -3 115 -5 247 l-4 239 38 -7 c20 -3 65 -6 100 -6z
m343 -56 c66 -33 105 -124 77 -181 -15 -32 -76 -76 -95 -69 -27 11 -11 -10 34
-43 l46 -34 -23 -19 c-46 -37 -65 -34 -126 21 -30 28 -59 51 -64 51 -5 0 -10
-19 -12 -42 -2 -35 -7 -44 -24 -46 -11 -2 -25 3 -31 10 -6 7 -13 88 -16 185
l-4 172 41 9 c52 12 163 3 197 -14z m-1625 -49 c21 -21 25 -33 22 -73 -3 -40
-6 -47 -25 -50 -21 -3 -23 1 -23 37 0 56 -27 71 -76 41 -48 -30 -57 -50 -41
-97 9 -28 26 -46 69 -75 32 -21 65 -49 74 -62 59 -92 -19 -192 -130 -166 -52
11 -65 26 -72 83 -6 42 -5 47 10 41 9 -4 30 -19 46 -35 32 -32 70 -38 94 -13
19 18 19 17 4 49 -6 14 -32 38 -57 55 -26 16 -57 44 -70 61 -21 28 -23 39 -17
91 9 89 49 132 126 136 32 2 45 -3 66 -23z m359 -95 c8 -89 -3 -330 -15 -330
-10 0 -105 104 -134 145 -45 67 -81 114 -87 115 -4 0 -4 -52 -1 -115 l5 -115
-43 0 -42 0 6 83 c4 45 7 126 8 180 1 54 5 100 9 103 4 2 50 -40 103 -93 l96
-97 0 92 c0 51 0 95 0 100 -1 8 59 20 77 14 6 -2 14 -37 18 -82z m483 3 c6
-49 13 -133 14 -188 l3 -100 -47 -2 -48 -2 0 34 c0 37 -5 40 -44 26 -18 -8
-25 -19 -28 -43 -3 -30 -6 -33 -36 -31 -18 0 -35 3 -37 5 -2 2 0 21 5 43 5 22
15 81 21 130 6 50 17 113 24 140 12 49 13 50 61 62 102 23 100 25 112 -74z
m128 6 c3 -35 8 -68 11 -72 5 -8 50 37 76 77 14 20 15 20 41 2 l28 -18 -51
-45 c-28 -25 -51 -53 -51 -62 0 -16 65 -120 83 -132 14 -10 4 -43 -16 -47 -9
-2 -17 1 -17 6 0 18 -82 132 -91 126 -5 -3 -9 -46 -9 -95 l0 -91 -42 7 c-24 4
-44 8 -44 9 -2 1 -11 376 -10 376 1 0 19 7 41 14 22 8 41 13 42 12 2 -1 5 -31
9 -67z"/>
<path d="M1315 840 c-28 -11 -44 -32 -51 -67 -5 -26 0 -37 31 -71 34 -38 39
-62 13 -62 -6 0 -20 7 -30 17 -17 15 -18 14 -18 -24 0 -44 10 -53 61 -53 41 0
79 40 79 82 0 24 -10 42 -37 70 -31 31 -34 38 -20 44 10 3 24 1 32 -6 13 -11
15 -7 15 28 0 33 -4 41 -22 46 -27 7 -28 7 -53 -4z"/>
<path d="M1420 715 l0 -135 35 0 35 0 0 55 c0 48 2 55 20 55 18 0 20 -7 20
-55 l0 -55 35 0 35 0 0 135 0 135 -35 0 -35 0 0 -50 c0 -43 -3 -50 -20 -50
-17 0 -20 7 -20 50 l0 50 -35 0 -35 0 0 -135z"/>
<path d="M1683 834 c-98 -49 -69 -254 37 -254 72 0 104 49 98 147 -3 51 -9 68
-28 88 -33 32 -68 38 -107 19z m61 -70 c21 -55 -9 -154 -35 -113 -10 16 -12
112 -2 122 11 12 31 7 37 -9z"/>
<path d="M1850 716 l0 -136 35 0 c35 0 35 0 35 45 0 43 1 45 28 45 41 0 72 37
72 86 0 58 -31 84 -109 91 l-61 6 0 -137z m98 31 c-6 -38 -28 -31 -28 8 0 33
2 36 15 25 9 -7 15 -22 13 -33z"/>
</g>
</svg>
